<svg id="visual" viewBox="0 0 2560 1080" width="2560" height="1080" xmlns="http://www.w3.org/2000/svg" xmlns:xlink="http://www.w3.org/1999/xlink" version="1.1"><rect x="0" y="0" width="2560" height="1080" fill="#5185ca"></rect><g transform="translate(1276.737824960852 452.029291890471)"><path d="M315.2 -415.8C399.2 -372.8 451.6 -268.3 497.8 -155C544 -41.6 583.9 80.6 560.4 191C536.8 301.5 449.7 400.3 345.8 479.1C241.8 557.8 120.9 616.4 -1.5 618.4C-123.8 620.4 -247.7 565.9 -353.7 487.8C-459.7 409.8 -548 308.3 -559.5 199.2C-571 90.1 -505.6 -26.5 -446.8 -125.9C-388 -225.4 -335.7 -307.7 -262.3 -354.1C-188.9 -400.6 -94.4 -411.2 10.6 -425.8C115.6 -440.4 231.2 -458.8 315.2 -415.8" fill="#274e81"></path></g></svg>