<svg id="visual" viewBox="0 0 2560 1080" width="2560" height="1080" xmlns="http://www.w3.org/2000/svg" xmlns:xlink="http://www.w3.org/1999/xlink" version="1.1"><rect x="0" y="0" width="2560" height="1080" fill="#2b6c8d"></rect><path d="M0 889L38.8 888.5C77.7 888 155.3 887 232.8 886.3C310.3 885.7 387.7 885.3 465.2 895.8C542.7 906.3 620.3 927.7 698 943C775.7 958.3 853.3 967.7 931 969.3C1008.7 971 1086.3 965 1163.8 959.8C1241.3 954.7 1318.7 950.3 1396.2 945.2C1473.7 940 1551.3 934 1629 925.2C1706.7 916.3 1784.3 904.7 1862 894.2C1939.7 883.7 2017.3 874.3 2094.8 886.5C2172.3 898.7 2249.7 932.3 2327.2 943.8C2404.7 955.3 2482.3 944.7 2521.2 939.3L2560 934L2560 1081L2521.2 1081C2482.3 1081 2404.7 1081 2327.2 1081C2249.7 1081 2172.3 1081 2094.8 1081C2017.3 1081 1939.7 1081 1862 1081C1784.3 1081 1706.7 1081 1629 1081C1551.3 1081 1473.7 1081 1396.2 1081C1318.7 1081 1241.3 1081 1163.8 1081C1086.3 1081 1008.7 1081 931 1081C853.3 1081 775.7 1081 698 1081C620.3 1081 542.7 1081 465.2 1081C387.7 1081 310.3 1081 232.8 1081C155.3 1081 77.7 1081 38.8 1081L0 1081Z" fill="#002E74" stroke-linecap="round" stroke-linejoin="miter"></path></svg>