<svg id="visual" viewBox="0 0 2560 1080" width="2560" height="1080" xmlns="http://www.w3.org/2000/svg" xmlns:xlink="http://www.w3.org/1999/xlink" version="1.1"><rect x="0" y="0" width="2560" height="1080" fill="#7397B3"></rect><path d="M0 767L42.7 763.7C85.3 760.3 170.7 753.7 256 766C341.3 778.3 426.7 809.7 512 841.8C597.3 874 682.7 907 768 931.8C853.3 956.7 938.7 973.3 1024 965.7C1109.3 958 1194.7 926 1280 883.7C1365.3 841.3 1450.7 788.7 1536 798.3C1621.3 808 1706.7 880 1792 886.2C1877.3 892.3 1962.7 832.7 2048 825.5C2133.3 818.3 2218.7 863.7 2304 898.3C2389.3 933 2474.7 957 2517.3 969L2560 981L2560 1081L2517.3 1081C2474.7 1081 2389.3 1081 2304 1081C2218.7 1081 2133.3 1081 2048 1081C1962.7 1081 1877.3 1081 1792 1081C1706.7 1081 1621.3 1081 1536 1081C1450.7 1081 1365.3 1081 1280 1081C1194.7 1081 1109.3 1081 1024 1081C938.7 1081 853.3 1081 768 1081C682.7 1081 597.3 1081 512 1081C426.7 1081 341.3 1081 256 1081C170.7 1081 85.3 1081 42.7 1081L0 1081Z" fill="#002e74" stroke-linecap="round" stroke-linejoin="miter"></path></svg>